<svg fill="#000000" version="1.1" id="Capa_1" xmlns="http://www.w3.org/2000/svg"
     viewBox="0 0 323.19 323.19" xml:space="preserve"><g id="SVGRepo_bgCarrier" stroke-width="0"></g>
    <g id="SVGRepo_tracerCarrier" stroke-linecap="round" stroke-linejoin="round"></g>
    <g id="SVGRepo_iconCarrier"> <g> <g> <path
            d="M275.431,89.372c-35.025-37.7-92.668-54.635-143.439-56.752c-0.947-2.618-3.436-4.495-6.382-4.495H105.72 C102.59,14.556,93.36,0,82.452,0C68.974,0,58.04,22.227,58.04,37.36c0,10.68,5.499,19.827,13.437,24.35 c-0.181,0.614-0.383,1.225-0.383,1.903v5.064c-8.388,0.784-18.563,2.602-19.874,6.86c-2.268,7.382,22.716,13.06-4.543,40.32 c-27.26,27.26-42.588,53.378,0,116.981c42.59,63.604-13.06,83.477-13.06,83.477v4.542h48.835h48.835v-4.542 c0,0-55.649-19.873-13.059-83.477c42.587-63.603,27.26-89.721,0-116.981s-2.271-32.933-4.544-40.32 c-1.31-4.259-11.485-6.076-19.874-6.86v-5.06c0-0.673-0.202-1.289-0.383-1.903c5.447-3.102,9.699-8.368,11.842-14.853h20.345 c2.768,0,5.142-1.66,6.209-4.029c45.668,1.939,93.597,16.438,128.528,46.264c41.979,35.843,43.646,103.523,3.18,141.354 c-15.482-10.03-43.103-4.914-66.461,13.541c-26.817,21.199-37.845,51.947-24.617,68.683c13.22,16.726,45.682,13.11,72.504-8.089 c25.906-20.479,37.003-49.834,25.813-66.885C312.428,199.161,313.443,130.297,275.431,89.372z"></path> </g> </g> </g></svg>