<?xml version="1.0" encoding="iso-8859-1"?>
<!-- Uploaded to: SVG Repo, www.svgrepo.com, Generator: SVG Repo Mixer Tools -->
<svg height="800px" width="800px" version="1.1" id="Layer_1" xmlns="http://www.w3.org/2000/svg" xmlns:xlink="http://www.w3.org/1999/xlink" 
	 viewBox="0 0 511.998 511.998" xml:space="preserve">
<path style="fill:#E0273D;" d="M391.252,156.698c-16.2-30.319-40.822-55.084-71.205-71.62
	c-30.553-16.63-66.259-23.452-100.738-20.418l-12.929-7.232l12.929-11.357c38.093-3.349,75.782,4.502,109.522,22.867
	c33.544,18.257,61.302,46.458,79.198,79.949l-5.017,11.247L391.252,156.698z"/>
<path style="fill:#ED4850;" d="M323.258,79.035c-31.561-17.179-68.251-24.56-103.949-22.155v7.779
	c34.478-3.035,70.184,3.789,100.738,20.418c30.383,16.537,55.005,41.302,71.205,71.62l6.997-3.258
	C380.886,122.024,355.023,96.323,323.258,79.035z"/>
<path style="fill:#6149AA;" d="M446.555,177.315l-13.824-29.018c-2.537-5.326-8.91-7.586-14.236-5.049l-8.554,4.075
	c-0.026,0.012-0.051,0.02-0.077,0.032l-27.385,13.051c-5.326,2.537-7.586,8.91-5.049,14.236l13.824,29.018l46.671-22.238
	l-0.012-0.026L446.555,177.315z"/>
<path style="fill:#4A4087;" d="M432.73,148.296c-2.537-5.326-8.91-7.586-14.236-5.049l-15.484,7.376
	c5.087-1.794,10.809,0.505,13.181,5.482l13.824,29.018l16.539-7.81L432.73,148.296z"/>
<path style="fill:#58595B;" d="M219.834,34.177c0-5.24-4.247-9.487-9.487-9.487h-18.989h0.001h-19.211
	c-5.24,0-9.487,4.247-9.487,9.487v99.768h41.183l0,0h15.991V34.177H219.834z"/>
<path style="fill:#414042;" d="M210.345,24.689h-18.989c5.24,0,9.487,4.247,9.487,9.487v99.768h18.989V34.177
	C219.834,28.937,215.585,24.689,210.345,24.689z"/>
<path style="fill:#ED4850;" d="M247.601,132.839h-35.776h0.001H134.89c-6.766,0-12.251,5.485-12.251,12.251v50.638
	c0,6.766,5.485,12.251,12.251,12.251h84.419h0.001h28.29c6.766,0,12.251-5.485,12.251-12.251V145.09
	C259.852,138.325,254.367,132.839,247.601,132.839z"/>
<path style="fill:#E0273D;" d="M247.601,132.839h-35.776c6.766,0,12.251,5.485,12.251,12.251v50.638
	c0,6.766-5.485,12.251-12.251,12.251h35.776c6.766,0,12.251-5.485,12.251-12.251V145.09
	C259.852,138.325,254.367,132.839,247.601,132.839z"/>
<path style="fill:#F2BA43;" d="M191.298,170.41c-11.32,0-22.369,1.147-33.055,3.3c-0.168,0.031-0.342,0.049-0.507,0.083
	C81.85,189.322,24.765,256.467,24.765,336.943c0,56.693,28.337,107.406,71.612,137.482H217.56h13.999h54.659
	c43.276-30.075,71.613-80.788,71.613-137.482C357.832,244.969,283.273,170.41,191.298,170.41z"/>
<path style="fill:#EDA21D;" d="M191.298,170.41c-11.768,0-23.25,1.229-34.329,3.55c75.503,15.824,132.205,82.779,132.205,162.983
	c0,56.693-28.338,107.406-71.613,137.482h68.659c43.275-30.075,71.613-80.788,71.613-137.482
	C357.832,244.969,283.273,170.41,191.298,170.41z"/>
<g>
	<path style="fill:#ED4850;" d="M155.345,379.549h71.907c16.392-11.392,27.125-30.356,27.125-51.83
		c0-34.837-28.241-63.077-63.077-63.077s-63.077,28.241-63.077,63.077C128.221,349.193,138.954,368.157,155.345,379.549z"/>
	<path style="fill:#ED4850;" d="M285.924,473.78H96.569c-10.499,0-19.011,8.512-19.011,19.011v0.195
		c0,10.499,8.512,19.011,19.011,19.011h139.272h50.083c10.499,0,19.011-8.512,19.011-19.011v-0.195
		C304.935,482.292,296.424,473.78,285.924,473.78z"/>
</g>
<path style="fill:#E0273D;" d="M285.924,473.78h-67.381c10.499,0,19.011,8.512,19.011,19.011v0.195
	c0,10.499-8.512,19.011-19.011,19.011h67.381c10.499,0,19.011-8.512,19.011-19.011v-0.195
	C304.935,482.292,296.423,473.78,285.924,473.78z"/>
<g>
	<path style="fill:#D1D3D4;" d="M108.172,68.7c-0.039-5.051-4.145-9.119-9.187-9.119c-0.023,0-0.048,0-0.071,0l-40.13,0.306
		c-5.074,0.039-9.157,4.184-9.119,9.258c0.039,5.051,4.145,9.119,9.187,9.119c0.023,0,0.048,0,0.071,0l40.13-0.306
		C104.128,77.919,108.21,73.774,108.172,68.7z"/>
	<circle style="fill:#D1D3D4;" cx="26.562" cy="69.327" r="9.188"/>
	<circle style="fill:#D1D3D4;" cx="17.371" cy="19.636" r="9.188"/>
	<circle style="fill:#D1D3D4;" cx="13.196" cy="127.949" r="9.188"/>
	<path style="fill:#D1D3D4;" d="M91.602,32.018l19.645,9.992c1.334,0.679,2.757,1,4.159,1c3.347,0,6.575-1.836,8.197-5.024
		c2.301-4.523,0.499-10.056-4.025-12.355l-19.645-9.992c-4.522-2.3-10.056-0.5-12.355,4.025
		C85.278,24.186,87.079,29.719,91.602,32.018z"/>
	<circle style="fill:#D1D3D4;" cx="66.986" cy="9.188" r="9.188"/>
	<path style="fill:#D1D3D4;" d="M126.979,94.694c-3.199-3.939-8.986-4.538-12.925-1.338l-17.108,13.896
		c-3.939,3.2-4.538,8.986-1.338,12.925c1.816,2.236,4.466,3.395,7.138,3.395c2.036,0,4.085-0.673,5.789-2.057l17.106-13.896
		C129.58,104.42,130.179,98.634,126.979,94.694z"/>
	<circle style="fill:#D1D3D4;" cx="77.67" cy="134.748" r="9.188"/>
</g>
<circle style="fill:#F2BA43;" cx="191.251" cy="60.138" r="9.188"/>
<path style="fill:#F474FB;" d="M501.504,209.099c-10.797-22.665-32.749-36.403-56.152-37.812c-0.334-0.023-0.657-0.058-1.001-0.072
	c-10.551-0.475-21.368,1.56-31.569,6.418c-33.19,15.811-47.277,55.533-31.466,88.722c6.407,13.451,16.742,23.764,28.979,30.221
	c0.131,0.07,0.261,0.124,0.392,0.19c17.885,9.29,39.754,10.39,59.351,1.055C503.226,282.01,517.315,242.289,501.504,209.099z"/>
<path style="fill:#E45ACD;" d="M501.504,209.099c-10.951-22.988-33.376-36.801-57.153-37.874
	c12.234,6.458,22.569,16.768,28.975,30.217c15.811,33.188,1.724,72.911-31.466,88.722c-10.2,4.86-21.018,6.884-31.569,6.409
	c17.957,9.478,40.006,10.652,59.746,1.248C503.226,282.01,517.314,242.289,501.504,209.099z"/>
</svg>